#!OML:ASF I:\Actors\actors\Patient Classification 2\Patient 1\Session 1\actor1.ASF
:FULLY-SPECIFIED
:DEGREES
425
root -0.230675 18.7845 5.26578 6.1864 14.292 1.12529
lowerback 12.6645 5.66448 3.09025
upperback 0.915038 8.06111 1.73971
thorax -5.92084 3.89156 -1.29057
lowerneck -10.1138 -11.658 -9.95915
upperneck 7.1789 -15.06 7.95578
head 5.14458 -7.24781 2.7581
rclavicle 8.24956e-014 3.18055e-014
rhumerus -7.93471 7.59005 -58.6717
rradius 79.2621
rwrist -44.7505
rhand -2.34554 -47.9242
rfingers 7.12502
rthumb 23.3419 -76.5289
lclavicle 8.24956e-014 3.18055e-014
lhumerus -51.8121 -9.92636 92.3721
lradius 63.5032
lwrist 16.9575
lhand -9.16865 -23.2442
lfingers 7.12502
lthumb 16.7841 6.05037
rfemur 0 0 0
rtibia 0
rfoot 0 0
rtoes 0
lfemur -15.3015 -9.01267 -15.1747
ltibia 23.6293
lfoot -16.0005 3.49797
ltoes -55.5921
426
root -0.236213 18.7852 5.26148 6.17118 14.2436 1.09204
lowerback 12.6951 5.66859 3.05807
upperback 0.93293 8.06426 1.76598
thorax -5.92705 3.89414 -1.24887
lowerneck -10.0968 -11.6651 -9.97057
upperneck 7.14051 -15.0644 7.93169
head 5.12905 -7.25251 2.75395
rclavicle -7.83212e-014 -3.18055e-014
rhumerus -7.91209 7.63907 -58.6721
rradius 79.3387
rwrist -44.6692
rhand -2.29156 -47.9648
rfingers 7.12502
rthumb 23.3937 -76.5629
lclavicle -7.83212e-014 -3.18055e-014
lhumerus -51.8157 -10.1083 92.509
lradius 63.509
lwrist 16.9491
lhand -9.16327 -23.2762
lfingers 7.12502
lthumb 16.7893 6.01792
rfemur 0 0 0
rtibia 0
rfoot 0 0
rtoes 0
lfemur -15.301 -8.96618 -15.127
ltibia 23.6128
lfoot -15.9709 3.51196
ltoes -55.6041
427
root -0.242239 18.7854 5.25602 6.15203 14.236 1.03071
lowerback 12.7252 5.65327 3.06113
upperback 0.962554 8.04695 1.80518
thorax -5.9183 3.88645 -1.20859
lowerneck -10.1265 -11.6707 -9.97808
upperneck 7.12151 -15.0625 7.89392
head 5.12517 -7.25329 2.7428
rclavicle -3.47873e-014 1.59028e-015
rhumerus -7.84831 7.74263 -58.6251
rradius 79.4056
rwrist -44.6296
rhand -2.40966 -48.0258
rfingers 7.12502
rthumb 23.2804 -76.6384
lclavicle -3.47873e-014 1.59028e-015
lhumerus -51.7772 -10.2462 92.6349
lradius 63.5245
lwrist 16.916
lhand -9.17993 -23.1471
lfingers 7.12502
lthumb 16.7732 6.14833
rfemur 0 0 0
rtibia 0
rfoot 0 0
rtoes 0
lfemur -15.3189 -8.87019 -15.0437
ltibia 23.6034
lfoot -15.9339 3.44547
ltoes -55.6556
428
root -0.247127 18.7856 5.25054 6.16199 14.2309 1.01762
lowerback 12.7527 5.6235 3.04972
upperback 0.98813 8.00662 1.81635
thorax -5.91092 3.86743 -1.18562
lowerneck -10.1465 -11.6636 -10.0181
upperneck 7.07636 -15.0464 7.92823
head 5.11878 -7.24448 2.76056
rclavicle 7.95139e-015 -2.38542e-014
rhumerus -7.80756 7.88822 -58.5949
rradius 79.5126
rwrist -44.6402
rhand -2.50576 -48.1641
rfingers 7.12502
rthumb 23.1882 -76.7883
lclavicle 7.95139e-015 -2.38542e-014
lhumerus -51.7168 -10.3029 92.7032
lradius 63.564
lwrist 16.9121
lhand -9.09396 -23.0203
lfingers 7.12502
lthumb 16.856 6.26814
rfemur 0 0 0
rtibia 0
rfoot 0 0
rtoes 0
lfemur -15.3527 -8.80363 -15.012
ltibia 23.6
lfoot -15.9316 3.38015
ltoes -55.6862
429
root -0.250666 18.7858 5.24548 6.18568 14.2059 1.03083
lowerback 12.7928 5.59577 3.04213
upperback 0.998311 7.96936 1.80745
thorax -5.92326 3.84883 -1.18827
lowerneck -10.1123 -11.6291 -10.0858
upperneck 6.99612 -15.003 8.05552
head 5.10013 -7.21962 2.81703
rclavicle 1.36167e-013 0
rhumerus -7.84155 8.06118 -58.57
rradius 79.711
rwrist -44.7374
rhand -2.60658 -48.3019
rfingers 7.12502
rthumb 23.0915 -76.9382
lclavicle 1.36167e-013 0
lhumerus -51.6967 -10.3546 92.7415
lradius 63.6467
lwrist 16.9574
lhand -8.98034 -23.0433
lfingers 7.12502
lthumb 16.9654 6.23573
rfemur 0 0 0
rtibia 0
rfoot 0 0
rtoes 0
lfemur -15.3875 -8.8234 -15.0112
ltibia 23.5984
lfoot -15.9301 3.4262
ltoes -55.6613
430
root -0.253054 18.7861 5.24122 6.2069 14.1718 1.02518
lowerback 12.8347 5.57944 3.05991
upperback 0.995727 7.95219 1.8102
thorax -5.94778 3.83911 -1.19691
lowerneck -10.0035 -11.5778 -10.1741
upperneck 6.88386 -14.945 8.23649
head 5.06406 -7.18763 2.89903
rclavicle 5.12864e-014 2.06736e-014
rhumerus -7.91533 8.18932 -58.5451
rradius 79.9244
rwrist -44.6797
rhand -2.63683 -48.4346
rfingers 7.12502
rthumb 23.0625 -77.0746
lclavicle 5.12864e-014 2.06736e-014
lhumerus -51.7116 -10.3966 92.7945
lradius 63.7407
lwrist 16.9995
lhand -8.82921 -23.1149
lfingers 7.12502
lthumb 17.1108 6.15158
rfemur 0 0 0
rtibia 0
rfoot 0 0
rtoes 0
lfemur -15.4194 -8.86986 -14.9944
ltibia 23.5959
lfoot -15.9024 3.52955
ltoes -55.6143
431
root -0.255305 18.7873 5.23711 6.2518 14.1758 0.99019
lowerback 12.8451 5.56504 3.11342
upperback 0.987683 7.94161 1.81311
thorax -5.95561 3.83221 -1.22265
lowerneck -9.84344 -11.5569 -10.0844
upperneck 6.71234 -14.9219 8.13363
head 4.96765 -7.18591 2.87156
rclavicle -2.06736e-014 3.81667e-014
rhumerus -8.00045 8.2124 -58.527
rradius 80.1343
rwrist -44.4922
rhand -2.35225 -48.6384
rfingers 7.12502
rthumb 23.3355 -77.244
lclavicle -2.06736e-014 3.81667e-014
lhumerus -51.7458 -10.5136 92.8618
lradius 63.9174
lwrist 17.0908
lhand -8.76031 -23.0269
lfingers 7.12502
lthumb 17.1771 6.23382
rfemur 0 0 0
rtibia 0
rfoot 0 0
rtoes 0
lfemur -15.4967 -8.85747 -14.942
ltibia 23.5961
lfoot -15.8527 3.54512
ltoes -55.6388
432
root -0.258808 18.7888 5.23199 6.31826 14.1942 0.931082
lowerback 12.8475 5.55801 3.18651
upperback 0.977574 7.94329 1.81541
thorax -5.9581 3.83092 -1.26088
lowerneck -9.71839 -11.5687 -9.89297
upperneck 6.5419 -14.9323 7.83589
head 4.85669 -7.20744 2.76632
rclavicle 7.15625e-015 -1.59028e-015
rhumerus -8.11448 8.19993 -58.4856
rradius 80.4169
rwrist -44.3975
rhand -2.0256 -48.8211
rfingers 7.12502
rthumb 23.6488 -77.3866
lclavicle 7.15625e-015 -1.59028e-015
lhumerus -51.8197 -10.7035 92.9399
lradius 64.2096
lwrist 17.2263
lhand -8.88545 -22.8205
lfingers 7.12502
lthumb 17.0567 6.45076
rfemur 0 0 0
rtibia 0
rfoot 0 0
rtoes 0
lfemur -15.6187 -8.81335 -14.8534
ltibia 23.6018
lfoot -15.8143 3.51151
ltoes -55.6899
433
root -0.262874 18.7899 5.22657 6.37082 14.1448 0.893582
lowerback 12.8734 5.57602 3.19642
upperback 0.991361 7.97023 1.83518
thorax -5.95844 3.84405 -1.25218
lowerneck -9.65782 -11.5681 -9.91498
upperneck 6.40523 -14.9251 7.82846
head 4.80489 -7.20767 2.77504
rclavicle -8.74653e-014 1.59028e-014
rhumerus -8.20831 8.18847 -58.4385
rradius 80.7357
rwrist -44.309
rhand -1.97116 -48.847
rfingers 7.12502
rthumb 23.7011 -77.4057
lclavicle -8.74653e-014 1.59028e-014
lhumerus -51.862 -10.7791 93.0127
lradius 64.5006
lwrist 17.3122
lhand -8.99431 -22.7357
lfingers 7.12502
lthumb 16.9519 6.54453
rfemur 0 0 0
rtibia 0
rfoot 0 0
rtoes 0
lfemur -15.7049 -8.68508 -14.7979
ltibia 23.6006
lfoot -15.7967 3.43942
ltoes -55.6646
434
root -0.266694 18.7915 5.22085 6.39461 14.047 0.883356
lowerback 12.9351 5.6058 3.15882
upperback 1.03241 8.00685 1.86352
thorax -5.95712 3.86339 -1.21278
lowerneck -9.53595 -11.5396 -10.0658
upperneck 6.16213 -14.883 8.01323
head 4.7326 -7.18628 2.86896
rclavicle -9.58142e-014 -2.70347e-014
rhumerus -8.27865 8.17349 -58.4017
rradius 81.076
rwrist -44.2206
rhand -1.94952 -48.8348
rfingers 7.12502
rthumb 23.7218 -77.3908
lclavicle -9.58142e-014 -2.70347e-014
lhumerus -51.8338 -10.7461 93.0588
lradius 64.7426
lwrist 17.349
lhand -9.0272 -22.8682
lfingers 7.12502
lthumb 16.9203 6.41476
rfemur 0 0 0
rtibia 0
rfoot 0 0
rtoes 0
lfemur -15.7362 -8.38106 -14.7948
ltibia 23.5812
lfoot -15.7556 3.25721
ltoes -55.7037
435
root -0.271833 18.7929 5.21401 6.41754 13.9645 0.891791
lowerback 13.0363 5.62984 3.11448
upperback 1.06159 8.0361 1.87734
thorax -5.98936 3.87792 -1.18869
lowerneck -9.31521 -11.5029 -10.1854
upperneck 5.80573 -14.8346 8.18238
head 4.60529 -7.16563 2.96295
rclavicle 1.06151e-013 -1.11319e-014
rhumerus -8.37251 8.19436 -58.3785
rradius 81.3815
rwrist -44.1306
rhand -1.89706 -48.7008
rfingers 7.12502
rthumb 23.7721 -77.2503
lclavicle 1.06151e-013 -1.11319e-014
lhumerus -51.8192 -10.705 93.0706
lradius 64.9942
lwrist 17.3585
lhand -8.99643 -22.9945
lfingers 7.12502
lthumb 16.9499 6.28593
rfemur 0 0 0
rtibia 0
rfoot 0 0
rtoes 0
lfemur -15.7608 -8.15347 -14.8013
ltibia 23.5416
lfoot -15.6872 3.16467
ltoes -55.7769
436
root -0.277402 18.7941 5.20799 6.45214 13.8839 0.911783
lowerback 13.1069 5.65119 3.05846
upperback 1.08881 8.05774 1.87538
thorax -6.0062 3.88935 -1.17013
lowerneck -9.10488 -11.4643 -10.212
upperneck 5.43957 -14.7947 8.35933
head 4.47149 -7.14664 3.04489
rclavicle 7.91163e-014 -1.27222e-014
rhumerus -8.42961 8.22685 -58.4255
rradius 81.5749
rwrist -44.0931
rhand -2.04037 -48.4244
rfingers 7.12502
rthumb 23.6347 -76.9916
lclavicle 7.91163e-014 -1.27222e-014
lhumerus -51.8545 -10.7164 93.0609
lradius 65.308
lwrist 17.3943
lhand -8.87877 -22.9911
lfingers 7.12502
lthumb 17.0631 6.27958
rfemur 0 0 0
rtibia 0
rfoot 0 0
rtoes 0
lfemur -15.7747 -8.18351 -14.7987
ltibia 23.4821
lfoot -15.6517 3.30459
ltoes -55.7544
437
root -0.281879 18.7958 5.20409 6.49627 13.7299 0.933902
lowerback 13.109 5.6824 2.95854
upperback 1.13416 8.08307 1.88317
thorax -5.97324 3.90563 -1.10978
lowerneck -8.93992 -11.4085 -10.041
upperneck 5.04779 -14.7258 8.28982
head 4.30034 -7.12035 3.02722
rclavicle -8.3092e-014 -2.06736e-014
rhumerus -8.41566 8.24568 -58.5105
rradius 81.7143
rwrist -44.1341
rhand -2.03228 -48.3408
rfingers 7.12502
rthumb 23.6424 -76.907
lclavicle -8.3092e-014 -2.06736e-014
lhumerus -51.9029 -10.7672 93.0668
lradius 65.6747
lwrist 17.5408
lhand -8.7141 -22.9495
lfingers 7.12502
lthumb 17.2216 6.30741
rfemur 0 0 0
rtibia 0
rfoot 0 0
rtoes 0
lfemur -15.7602 -8.23084 -14.8054
ltibia 23.4123
lfoot -15.6888 3.49638
ltoes -55.7342
438
root -0.286859 18.7971 5.20086 6.54825 13.4893 0.941966
lowerback 13.1282 5.7397 2.85299
upperback 1.16618 8.14339 1.8911
thorax -5.96387 3.93827 -1.05498
lowerneck -8.74826 -11.3374 -9.96336
upperneck 4.53956 -14.6267 8.28799
head 4.09931 -7.07935 3.05043
rclavicle 1.05356e-013 -9.54166e-015
rhumerus -8.38382 8.22186 -58.6108
rradius 81.7588
rwrist -44.0722
rhand -1.85734 -48.289
rfingers 7.12502
rthumb 23.8102 -76.8335
lclavicle 1.05356e-013 -9.54166e-015
lhumerus -51.921 -10.856 93.0924
lradius 65.9952
lwrist 17.6832
lhand -8.56059 -22.8952
lfingers 7.12502
lthumb 17.3694 6.34875
rfemur 0 0 0
rtibia 0
rfoot 0 0
rtoes 0
lfemur -15.7418 -8.19349 -14.8036
ltibia 23.3517
lfoot -15.7762 3.67605
ltoes -55.7063
439
root -0.291966 18.7987 5.19884 6.58333 13.215 0.88348
lowerback 13.1664 5.8031 2.83967
upperback 1.18069 8.22583 1.88968
thorax -5.96888 3.97861 -1.06657
lowerneck -8.49613 -11.2649 -9.97852
upperneck 3.85748 -14.5274 8.48736
head 3.859 -7.0339 3.15391
rclavicle -6.79844e-014 1.43125e-014
rhumerus -8.28931 8.14915 -58.7871
rradius 81.5364
rwrist -43.8467
rhand -1.84205 -47.9841
rfingers 7.12502
rthumb 23.8249 -76.5267
lclavicle -6.79844e-014 1.43125e-014
lhumerus -51.915 -10.9414 93.0873
lradius 66.2478
lwrist 17.7129
lhand -8.48748 -22.8137
lfingers 7.12502
lthumb 17.4397 6.42403
rfemur 0 0 0
rtibia 0
rfoot 0 0
rtoes 0
lfemur -15.7202 -8.13209 -14.7374
ltibia 23.3042
lfoot -15.8546 3.91615
ltoes -55.7582
